<svg width="14" height="17" viewBox="0 0 14 17" fill="none" xmlns="http://www.w3.org/2000/svg">
<path d="M6.99407 0C10.8339 0 13.9998 3.16039 13.9998 7.07024C13.9998 9.04037 13.3056 10.8695 12.163 12.4198C10.9024 14.1299 9.34834 15.6203 7.59953 16.7899C7.19957 17.0598 6.83829 17.0802 6.39935 16.7899C4.64057 15.6203 3.08665 14.1299 1.83689 12.4198C0.693465 10.8695 5.14568e-05 9.04037 0 7.07024C0 3.16055 3.16526 0.00025394 6.99407 0ZM6.99504 4.9101C5.7254 4.9101 4.68948 5.99043 4.6894 7.28996C4.6894 8.59976 5.72535 9.62978 6.99504 9.62978C8.26537 9.62955 9.31045 8.59961 9.31045 7.28996C9.31036 5.99058 8.26532 4.91034 6.99504 4.9101Z" fill="#A303A0"/>
</svg>
