<svg width="22" height="21" viewBox="0 0 22 21" fill="none" xmlns="http://www.w3.org/2000/svg">
<path d="M9.96703 0C12.5735 0 14.699 2.08924 14.6992 4.66151V9.69145H8.29038C7.83101 9.69145 7.4677 10.0485 7.4677 10.5C7.46783 10.9409 7.8311 11.3085 8.29038 11.3085H14.6992V16.3274C14.699 18.8997 12.5737 21 9.94583 21H4.74327C2.12596 21 0 18.9099 0 16.3375V4.67261C0 2.08967 2.13706 0 4.75437 0H9.96703ZM17.3671 6.87719C17.6821 6.55201 18.1969 6.5522 18.5118 6.86709L21.5774 9.92261C21.7348 10.0801 21.8186 10.2796 21.8186 10.5C21.8186 10.71 21.7349 10.9203 21.5774 11.0673L18.5118 14.1228C18.3543 14.2803 18.1439 14.364 17.9445 14.3641C17.7346 14.3641 17.5246 14.2801 17.3671 14.1228C17.0521 13.8078 17.0521 13.2931 17.3671 12.9781L19.0468 11.3085H14.7002V9.69145H19.0468L17.3671 8.02187C17.0521 7.70688 17.0521 7.19218 17.3671 6.87719Z" fill="white"/>
</svg>
